<?xml version="1.0" encoding="utf-8"?>
<!-- Generator: Adobe Illustrator 28.2.0, SVG Export Plug-In . SVG Version: 6.00 Build 0)  -->
<svg version="1.1" id="Camada_1" xmlns="http://www.w3.org/2000/svg" xmlns:xlink="http://www.w3.org/1999/xlink" x="0px" y="0px"
	 viewBox="0 0 500 500" style="enable-background:new 0 0 500 500;" xml:space="preserve">
<style type="text/css">
	.st0{opacity:0.1;fill:#6900F2;enable-background:new    ;}
	.st1{opacity:0.15;fill:#6900F2;enable-background:new    ;}
	.st2{fill:#6900F2;}
	.st3{opacity:0.3;fill:#FFFFFF;enable-background:new    ;}
	.st4{opacity:0.15;enable-background:new    ;}
	.st5{opacity:0.15;}
	.st6{fill:#263238;}
	.st7{fill:#455A64;}
	.st8{fill:#37474F;}
	.st9{opacity:0.9;fill:#FFFFFF;enable-background:new    ;}
	.st10{fill:#E0E0E0;}
	.st11{fill:#C1FE0E;}
	.st12{opacity:0.3;enable-background:new    ;}
	.st13{opacity:0.5;fill:#FFFFFF;enable-background:new    ;}
	.st14{opacity:0.25;enable-background:new    ;}
	.st15{fill:#6F8419;}
	.st16{fill:#9BC110;}
	.st17{fill:#87A517;}
	.st18{fill:#FFBDA7;}
	.st19{fill:#FFFFFF;}
	.st20{opacity:0.1;enable-background:new    ;}
	.st21{fill:#F0997A;}
</style>
<g id="freepik--Portal--inject-76">
	<g id="freepik--portal--inject-76">
		<path class="st0" d="M305.5,326.3v-12.3l-17.8-10.3v-12.3L269.9,281v-12.3l-17.8-10.3l-77,42l20,11.5v12.3l17.8,10.3v12.4
			l17.8,10.3v12.4l78.1,112.8c77.3-13,136.3-52.4,161.2-103.3c2.9-5.9,5.4-11.8,7.7-17.8l0,0L305.5,326.3z"/>
		<path class="st1" d="M195.8,85.7c-52.1,30-94.3,110.4-94.3,179.6c0,41.1,14.9,69.1,38,78.7l9.5-5.5l93.7-54.1l0,0l9.8-5.6
			c22.9-36.1,37.7-81,37.7-122C290.1,87.6,247.9,55.7,195.8,85.7z"/>
		<path class="st1" d="M195.8,105.7c-43.8,25.2-79.3,92.8-79.3,150.9s35.5,84.9,79.3,59.7s79.3-92.8,79.3-150.9
			S239.6,80.5,195.8,105.7z"/>
		<path class="st1" d="M195.8,119.8c-37.8,21.8-68.4,80.3-68.4,130.7s30.6,73.5,68.4,51.7s68.4-80.3,68.4-130.7
			S233.6,98,195.8,119.8z"/>
		<path class="st2" d="M155.4,252.9c0-43.6,26.5-94.3,59.3-113.2c14.4-8.3,27.6-9.1,37.9-3.6l-13.3-7.7c-10.4-6-24-5.5-38.8,3.1
			c-32.8,18.9-59.3,69.6-59.3,113.2c0,23.9,7.9,40.7,20.5,47.9c2.1,1.2,10.1,5.9,13.4,7.7C163,292.9,155.4,276.3,155.4,252.9z"/>
		<path class="st3" d="M155.4,252.9c0-43.6,26.5-94.3,59.3-113.2c14.4-8.3,27.6-9.1,37.9-3.6l-13.3-7.7c-10.4-6-24-5.5-38.8,3.1
			c-32.8,18.9-59.3,69.6-59.3,113.2c0,23.9,7.9,40.7,20.5,47.9c2.1,1.2,10.1,5.9,13.4,7.7C163,292.9,155.4,276.3,155.4,252.9z"/>
		<path class="st2" d="M238,148.8c5.2,6.9,7.9,17.9,7.3,32.2c-1.5,35-22.8,76.6-47.5,92.9c-7.5,5-14.5,7-20.5,6.5
			c7.5,10,20.1,11.4,34.8,1.8c24.8-16.3,46.1-57.9,47.5-92.9C260.6,164.8,251.8,150.1,238,148.8z"/>
		<path class="st4" d="M238,148.8c5.2,6.9,7.9,17.9,7.3,32.2c-1.5,35-22.8,76.6-47.5,92.9c-7.5,5-14.5,7-20.5,6.5
			c7.5,10,20.1,11.4,34.8,1.8c24.8-16.3,46.1-57.9,47.5-92.9C260.6,164.8,251.8,150.1,238,148.8z"/>
		<path class="st2" d="M170.5,159.6l14.2,8.2l1.1-1.5l-14.2-8.2C171.3,158.5,170.9,159,170.5,159.6z"/>
		<path class="st2" d="M164,207.2l-14.3-8.2c-0.2,0.6-0.4,1.1-0.6,1.7l14.2,8.2C163.6,208.3,163.8,207.8,164,207.2z"/>
		<path class="st2" d="M229,124.7l14.3,8.3c0.6,0.1,1.2,0.2,1.7,0.3l-14.3-8.2C230.2,124.9,229.6,124.8,229,124.7z"/>
		<path class="st2" d="M157.4,231.4c0.1-0.6,0.2-1.2,0.4-1.9l-14.2-8.2c-0.1,0.6-0.2,1.2-0.4,1.9L157.4,231.4z"/>
		<path class="st2" d="M184.6,143.6l14.2,8.2c0.5-0.5,1-0.9,1.5-1.4l-14.3-8.2C185.5,142.6,185,143.1,184.6,143.6z"/>
		<path class="st2" d="M157.5,272.5c-0.1-0.5-0.2-1.1-0.4-1.7l-0.1-0.2l-14.2-8.2c0.1,0.6,0.3,1.3,0.4,1.9L157.5,272.5z"/>
		<path class="st2" d="M216.6,125.1c-0.6,0.1-1.2,0.3-1.8,0.4l14.3,8.2c0.6-0.2,1.2-0.3,1.9-0.4L216.6,125.1z"/>
		<path class="st2" d="M215.6,139.2l-14.2-8.2c-0.3,0.2-0.6,0.3-0.9,0.5l-0.9,0.5l14.2,8.2l0.9-0.5L215.6,139.2z"/>
		<path class="st2" d="M158.5,179l14.2,8.2l0.8-1.6l-14.2-8.2C159,177.9,158.7,178.5,158.5,179z"/>
		<path class="st2" d="M163.6,288.2c-0.3-0.5-0.6-1.1-0.9-1.7l-14.2-8.2c0.3,0.6,0.6,1.1,0.9,1.7L163.6,288.2z"/>
		<path class="st2" d="M141.2,244.9l14.2,8.2v-0.2c0-0.6,0-1.2,0-1.9l-14.3-8.2c0,0.6,0,1.2,0,1.9L141.2,244.9z"/>
		<path class="st2" d="M214.7,139.7c-32.7,18.9-59.3,69.6-59.3,113.2s26.5,63.7,59.3,44.8S274,228.1,274,184.5
			S247.4,120.8,214.7,139.7z M259.6,189.2c-1.5,35-22.8,76.6-47.6,92.9s-43.6,1.1-42.1-33.9s22.8-76.6,47.6-92.9
			S261,154.2,259.6,189.2L259.6,189.2z"/>
		<g class="st5">
			<path d="M202.6,168.4c0.5-0.5,0.9-1.1,1.4-1.6l-3.8-16.5c-0.5,0.4-1,0.9-1.5,1.4L202.6,168.4z"/>
			<path d="M213.8,140.2v17.7c0.6-0.4,1.2-0.9,1.8-1.3v-17.4l-0.9,0.5L213.8,140.2z"/>
			<path d="M225.9,150.8c0.6-0.2,1.3-0.5,1.9-0.7l3-16.8c-0.6,0.1-1.2,0.3-1.9,0.4L225.9,150.8z"/>
			<path d="M177.6,211.6l0.6-1.7l-14.2-2.8c-0.2,0.6-0.4,1.1-0.6,1.7L177.6,211.6z"/>
			<path d="M184.3,196l0.8-1.6l-11.6-8.7l-0.8,1.6L184.3,196z"/>
			<path d="M271.6,163.5L259,175.3c0.1,0.7,0.2,1.4,0.3,2.1l12.8-12C271.9,164.8,271.7,164.2,271.6,163.5z"/>
			<path d="M170.3,242.5l-14.8,8.6c0,0.6,0,1.2,0,1.9v0.2l14.7-8.5C170.1,243.9,170.2,243.2,170.3,242.5z"/>
			<path d="M172.7,228c0.1-0.6,0.3-1.3,0.5-1.9l-15.4,3.4c-0.1,0.6-0.2,1.2-0.4,1.9L172.7,228z"/>
			<path d="M237.7,148.8c0.6,0.1,1.2,0.1,1.8,0.2l5.5-15.8c-0.6-0.1-1.2-0.2-1.8-0.3L237.7,148.8z"/>
			<path d="M255.1,161.9c0.3,0.6,0.6,1.2,0.8,1.8l10.3-13.9c-0.3-0.6-0.6-1.1-1-1.6L255.1,161.9z"/>
			<path d="M247.9,152.6c0.5,0.4,0.9,0.7,1.4,1.1l7.8-14.9c-0.5-0.4-0.9-0.7-1.4-1.1L247.9,152.6z"/>
			<path d="M192.7,181.4l1.1-1.6l-7.8-13.6l-1.1,1.5L192.7,181.4z"/>
			<path d="M227.1,268.6c-0.5,0.5-1,1.1-1.4,1.6l3.8,16.5c0.5-0.5,1-0.9,1.5-1.4L227.1,268.6z"/>
			<path d="M245.7,240.2c-0.3,0.5-0.5,1.1-0.8,1.6l11.6,8.8l0.8-1.6L245.7,240.2z"/>
			<path d="M237.3,255.2l-1.1,1.6l7.9,13.6c0.4-0.5,0.8-1,1.1-1.5L237.3,255.2z"/>
			<path d="M252.4,224.2c-0.2,0.6-0.4,1.1-0.6,1.7l14.2,2.7c0.2-0.6,0.4-1.1,0.6-1.7L252.4,224.2z"/>
			<path d="M257.1,207.6c-0.1,0.6-0.3,1.3-0.4,1.9l15.3-3.4c0.1-0.6,0.2-1.2,0.3-1.9L257.1,207.6z"/>
			<path d="M274,182.6l-14.6,8.4c0,0.7-0.1,1.4-0.1,2.1l14.7-8.4v-0.2C274,183.9,274,183.3,274,182.6z"/>
			<path d="M215.6,297.2v-17.6c-0.6,0.5-1.2,0.9-1.8,1.3v17.4l0.9-0.5C215,297.6,215.3,297.4,215.6,297.2z"/>
			<path d="M173.8,274.4c-0.3-0.6-0.5-1.2-0.8-1.9l-10.4,14c0.3,0.6,0.6,1.1,0.9,1.7L173.8,274.4z"/>
			<path d="M180.9,284.3c-0.5-0.4-0.9-0.8-1.4-1.2l-7.8,14.9c0.5,0.4,0.9,0.7,1.4,1.1L180.9,284.3z"/>
			<path d="M203.2,286.7c-0.6,0.2-1.3,0.5-1.9,0.6l-3,16.8c0.6-0.1,1.2-0.2,1.9-0.4L203.2,286.7z"/>
			<path d="M191.1,288.6c-0.6-0.1-1.2-0.1-1.8-0.3l-5.5,15.7c0.6,0.1,1.2,0.2,1.7,0.4L191.1,288.6z"/>
			<path d="M170.3,260.6c-0.1-0.7-0.1-1.5-0.2-2.2l-13,12.1c0.1,0.7,0.3,1.3,0.4,2L170.3,260.6z"/>
		</g>
		<polygon class="st6" points="230.7,369.5 163,330.4 163,293.3 177.2,301.6 195.1,311.9 195.1,324.2 212.9,334.5 212.9,346.9 
			230.7,357.1 		"/>
		<polygon class="st7" points="177.2,301.6 252.1,258.4 269.9,268.7 195.1,311.9 		"/>
		<polygon class="st8" points="195.1,311.9 195.1,324.2 269.9,281 269.9,268.7 		"/>
		<polygon class="st7" points="195.1,324.2 269.9,281 287.7,291.3 212.9,334.5 		"/>
		<polygon class="st8" points="212.9,334.5 212.9,346.9 287.7,303.6 287.7,291.3 		"/>
		<polygon class="st7" points="212.9,346.9 287.7,303.6 305.5,313.9 230.7,357.1 		"/>
		<polygon class="st8" points="230.7,357.1 230.7,369.5 305.5,326.3 305.5,313.9 		"/>
		<path class="st2" d="M252.1,185c-1.5,35-22.8,76.6-47.6,92.9c-9.2,6-17.6,7.8-24.4,5.7c-7-6.4-11-18.6-10.3-35.4
			c1.5-35,22.8-76.6,47.6-92.9c9.2-6.1,17.6-7.8,24.4-5.7C248.9,156,252.9,168.2,252.1,185z"/>
		<path class="st9" d="M252.1,185c-1.5,35-22.8,76.6-47.6,92.9c-9.2,6-17.6,7.8-24.4,5.7c-7-6.4-11-18.6-10.3-35.4
			c1.5-35,22.8-76.6,47.6-92.9c9.2-6.1,17.6-7.8,24.4-5.7C248.9,156,252.9,168.2,252.1,185z"/>
		<path class="st0" d="M204.5,260c-7.7,0.9-14.9,4.5-20.2,10.2c-2.9,3.1-5.2,6.6-6.9,10.4c0.8,1.1,1.7,2.1,2.7,3
			c1.5,0.4,3,0.7,4.5,0.8c0.4-1,0.7-2,1.1-3.1c3.5-9.6,12.5-16.2,22.7-16.6c3.4-0.1,6.8,0.5,10.2,0.8c1.4-1.5,2.7-3,4-4.6
			C216.7,260.6,210.4,259.4,204.5,260z M203,208.8c7,0.9,14.6,1.3,20.8-2.3c6.9-4.1,10.2-12.1,13.6-19.4c3.1-6.8,7.4-13.9,14.1-16.5
			c-1.4-9.5-4.8-16.6-9.6-21c-3.3-0.9-6.8-1.1-10.1-0.4c-3.4,3.9-5.9,8.5-7.2,13.4c-1.6,5.6-2.2,11.6-4.7,16.8
			c-2.6,5.2-7.1,9.3-12.5,11.5c-4.3,1.7-8.9,2.1-13.5,2.8c-3.2,0.5-6.3,1.2-9.4,2.1c-2.4,4.7-4.5,9.6-6.3,14.5
			c1.2-0.6,2.5-1.2,3.8-1.6C188.7,206.6,196,207.9,203,208.8z M210.2,173.8c2.2-3.9,3-8.4,4.2-12.7c0.4-1.6,1-3.2,1.5-4.8
			c-1.6,1.1-3.2,2.4-4.8,3.7c-2.3,5.5-4.5,11-8.6,15.1c-2.1,2.1-4.7,3.7-7.4,4.7c-0.5,0.2-1.1,0.3-1.6,0.4c-1,1.5-2,3-3,4.6
			c2.3-0.2,4.5-0.6,6.7-1.1C202.5,182.1,207.2,178.6,210.2,173.8L210.2,173.8z M252.2,179.9c-2,1-3.7,2.3-5.2,3.9
			c-3.7,4.1-5.7,9.4-8,14.4c-3.2,7.2-7.3,14.5-14.2,18.2c-4.6,2.5-10,3.1-15.2,3.2c-9.9,0.3-19.9-1-29.5,1.1
			c-2.1,0.5-4.1,1.1-6.1,1.9c-0.7,2.4-1.2,4.8-1.8,7.1c2.2-1.2,4.6-2.1,7.1-2.8c14.2-3.6,30,4.3,43.6-1c10-3.9,16.1-13.8,21-23.4
			c2-3.9,4.1-8,7.6-10.6c0.3-2.4,0.5-4.7,0.6-7.1C252.2,183.2,252.2,181.5,252.2,179.9L252.2,179.9z M216.7,238.1
			c-7.7,0.3-15.4-0.4-23.1-0.6c-3.9-0.2-7.9,0.2-11.7,1.2c-3.3,1.1-6.5,2.8-9.3,4.9c-0.9,0.6-1.7,1.3-2.5,1.9
			c-0.1,0.9-0.1,1.8-0.2,2.6c-0.4,10.1,0.9,18.6,3.5,25.2c1.7-1.5,3.2-3.2,4.5-5c5.3-7.1,10.4-15.1,18.4-18.9
			c8.6-4.1,18.8-2.6,28.1-4.5c4.1-0.8,8-2.3,11.6-4.4c1.5-2.8,2.9-5.6,4.2-8.5c-0.4,0.2-0.8,0.5-1.2,0.7
			C232.2,236.5,224.4,237.8,216.7,238.1L216.7,238.1z"/>
	</g>
</g>
<g id="freepik--Sparkles--inject-76">
	<g id="freepik--sparkles--inject-76">
		<path class="st2" d="M269.6,123.4c0,3.4-0.6,6.4-4.8,7.2c4.3,0.2,4.6,3,4.8,6.9c0.1-3.9,0.5-6.8,4.4-6.9
			C270,129.9,269.6,126.8,269.6,123.4z"/>
		<path class="st2" d="M172.6,304.4c0,3.4-0.6,6.4-4.8,7.1c4.3,0.2,4.6,3,4.8,6.9c0.1-3.9,0.5-6.8,4.4-6.9
			C172.9,310.9,172.6,307.8,172.6,304.4z"/>
		<path class="st2" d="M141.3,199.6c0,1.5-0.3,2.8-2.1,3.1c1.9,0.1,2,1.3,2.1,3c0.1-1.7,0.2-3,1.9-3
			C141.4,202.4,141.3,201.1,141.3,199.6z"/>
		<path class="st10" d="M133.1,205.5c0,3.4-0.6,6.4-4.8,7.1c4.3,0.2,4.6,3,4.8,6.9c0.1-3.9,0.5-6.8,4.4-6.9
			C133.5,212,133.1,208.9,133.1,205.5z"/>
		<path class="st10" d="M129.2,188.4c0,1.8-0.3,3.3-2.5,3.7c2.2,0.1,2.3,1.6,2.5,3.6c0.1-2,0.3-3.5,2.2-3.6
			C129.4,191.8,129.2,190.2,129.2,188.4z"/>
		<path class="st10" d="M258.1,113.2c0,2,0,3.9-2.9,4.3c3,0,2.8,1.9,2.9,4.3c0.1-2.4,0.3-4.1,2.7-4.2
			C258.3,117.1,258.4,116,258.1,113.2z"/>
		<path class="st10" d="M283,205.7c-0.2,3.8-0.5,5.4-3.9,5.8c3.5,0.2,3.7,2.5,3.9,5.7c0.1-3.2,0.4-5.5,3.5-5.7
			C283.3,211,283.3,209.5,283,205.7z"/>
		<path class="st10" d="M158.8,304.4c-0.1,2.2-0.3,3.1-2.3,3.4c2,0.1,2.2,1.4,2.3,3.3c0.1-1.9,0.2-3.2,2.1-3.3
			C159,307.5,158.9,306.6,158.8,304.4z"/>
		<path class="st10" d="M275.9,119.9c0,1.2,0,2.4-1.8,2.6c1.8,0,1.7,1.1,1.8,2.6c0-1.4,0.2-2.5,1.6-2.6
			C276.1,122.3,276.1,121.6,275.9,119.9z"/>
		<path class="st10" d="M279.7,216.6c0,1.2,0,2.4-1.8,2.6c1.8,0,1.7,1.1,1.8,2.6c0-1.4,0.2-2.5,1.6-2.6
			C279.8,219,279.9,218.3,279.7,216.6z"/>
		<path class="st10" d="M168,299.6c0,1.2,0,2.4-1.8,2.6c1.8,0,1.7,1.1,1.8,2.6c0.1-1.5,0.2-2.5,1.6-2.6
			C168.2,302,168.2,301.4,168,299.6z"/>
	</g>
</g>
<g id="freepik--number-2--inject-76">
	<path id="freepik--Shadow--inject-76" class="st11" d="M367.2,289.6l31.5-18.2l47.5,27.4l22.8-13.2l-47.5-27.4l15.4-8.9l-25-14.4
		l-15.4,8.9L369,227.9l-22.8,13.2l27.5,15.9L315,290.8l18.4,10.6l148.2,39.8l2.9-1.7c1.4-5.7,2.6-11.5,3.5-17.4L367.2,289.6z"/>
	<g id="freepik--4--inject-76">
		<path class="st2" d="M370.2,150.1l-1.2,0.7v-38.4l-14.3-8.2l-17.6,10.2l14.5-54.7l-14.2-8.2l-24.5,14.2l-39.6,148.2V235l14.2,8.2
			l44.5-25.7v15.3l14.3,8.2l22.7-13.2v-31.8l15.4-8.9v-28.9L370.2,150.1z M332,172.2l-12.1,7l12.1-45.4V172.2z"/>
		<path class="st12" d="M370.2,150.1l-1.2,0.7v-38.4l-14.3-8.2l-17.6,10.2l14.5-54.7l-14.2-8.2l-24.5,14.2l-39.6,148.2V235l14.2,8.2
			l44.5-25.7v15.3l14.3,8.2l22.7-13.2v-31.8l15.4-8.9v-28.9L370.2,150.1z M332,172.2l-12.1,7l12.1-45.4V172.2z"/>
		<polygon class="st2" points="369,167.2 369,112.3 346.2,125.5 346.2,180.4 314.7,198.6 351.7,59.6 327.1,73.8 287.5,222 
			287.5,243.2 346.2,209.3 346.2,241.1 369,227.9 369,196.1 384.5,187.2 384.5,158.3 		"/>
		<polygon class="st3" points="369,167.2 369,112.3 346.2,125.5 346.2,180.4 314.7,198.6 351.7,59.6 327.1,73.8 287.5,222 
			287.5,243.2 346.2,209.3 346.2,241.1 369,227.9 369,196.1 384.5,187.2 384.5,158.3 		"/>
		<polygon class="st2" points="351.7,59.6 337.4,51.4 312.9,65.5 327.1,73.8 		"/>
		<polygon class="st13" points="351.7,59.6 337.4,51.4 312.9,65.5 327.1,73.8 		"/>
		<polygon class="st2" points="354.8,104.1 369,112.3 346.2,125.5 335.8,119.5 337.1,114.3 		"/>
		<polygon class="st13" points="354.8,104.1 369,112.3 346.2,125.5 335.8,119.5 337.1,114.3 		"/>
		<polygon class="st2" points="346.2,180.4 332,172.2 319.9,179.1 314.7,198.6 		"/>
		<polygon class="st13" points="346.2,180.4 332,172.2 319.9,179.1 314.7,198.6 		"/>
		<polygon class="st2" points="384.5,158.3 370.2,150.1 369,150.8 369,167.2 		"/>
		<polyline class="st13" points="369,167.2 384.5,158.3 370.2,150.1 369,150.8 369,167.2 		"/>
		<polygon class="st2" points="287.5,222 273.3,213.8 312.9,65.5 327.1,73.8 		"/>
		<polygon class="st4" points="287.5,222 273.3,213.8 312.9,65.5 327.1,73.8 		"/>
	</g>
</g>
<g id="freepik--number-1--inject-76">
	<polygon id="freepik--shadow--inject-76" class="st11" points="205.4,383 180.4,368.5 165,377.5 137.5,361.6 114.7,374.8 
		142.2,390.6 83.5,424.5 101.8,435.1 250,474.9 274.6,460.8 135.7,423.3 167.2,405.1 214.7,432.5 237.6,419.4 190,391.9 	"/>
	<g id="freepik--4--inject-76_00000080901358479246501090000003850473752464711302_">
		<path class="st2" d="M138.7,283.8l-1.2,0.7V246l-14.3-8.2L105.6,248l14.6-54.7l-14.2-8.2l-24.5,14.1L41.7,347.4v21.2l14.3,8.2
			l44.4-25.7v15.3l14.2,8.2l22.8-13.2v-31.8l15.4-8.9V292L138.7,283.8z M100.4,305.9l-12.1,7l12.1-45.4V305.9z"/>
		<path class="st12" d="M138.7,283.8l-1.2,0.7V246l-14.3-8.2L105.6,248l14.6-54.7l-14.2-8.2l-24.5,14.1L41.7,347.4v21.2l14.3,8.2
			l44.4-25.7v15.3l14.2,8.2l22.8-13.2v-31.8l15.4-8.9V292L138.7,283.8z M100.4,305.9l-12.1,7l12.1-45.4V305.9z"/>
		<polygon class="st2" points="137.5,300.9 137.5,246 114.7,259.2 114.7,314.1 83.2,332.3 120.1,193.3 95.6,207.4 56,355.7 
			56,376.9 114.7,343 114.7,374.8 137.5,361.6 137.5,329.8 152.9,320.9 152.9,292 		"/>
		<polygon class="st3" points="137.5,300.9 137.5,246 114.7,259.2 114.7,314.1 83.2,332.3 120.1,193.3 95.6,207.4 56,355.7 
			56,376.9 114.7,343 114.7,374.8 137.5,361.6 137.5,329.8 152.9,320.9 152.9,292 		"/>
		<polygon class="st2" points="120.1,193.3 105.9,185.1 81.3,199.2 95.6,207.4 		"/>
		<polygon class="st13" points="120.1,193.3 105.9,185.1 81.3,199.2 95.6,207.4 		"/>
		<polygon class="st2" points="123.2,237.8 137.5,246 114.7,259.2 104.2,253.2 105.6,248 		"/>
		<polygon class="st13" points="123.2,237.8 137.5,246 114.7,259.2 104.2,253.2 105.6,248 		"/>
		<polygon class="st2" points="114.7,314.1 100.4,305.9 88.3,312.8 83.2,332.3 		"/>
		<polygon class="st13" points="114.7,314.1 100.4,305.9 88.3,312.8 83.2,332.3 		"/>
		<polygon class="st2" points="152.9,292 138.7,283.8 137.5,284.5 137.5,300.9 		"/>
		<polyline class="st13" points="137.5,300.9 152.9,292 138.7,283.8 137.5,284.5 137.5,300.9 		"/>
		<polygon class="st2" points="56,355.7 41.7,347.4 81.3,199.2 95.6,207.4 		"/>
		<polygon class="st4" points="56,355.7 41.7,347.4 81.3,199.2 95.6,207.4 		"/>
	</g>
</g>
<g id="freepik--speech-bubble--inject-76_00000083074453702380502760000008973555815615398785_">
	<g id="freepik--speech-bubble--inject-76_00000143608775889565543120000008315415425827150217_">
		<g id="freepik--speech-bubble--inject-76">
			<path class="st2" d="M153.4,113.5c0.6-2.7-10.6,3.7-11.2,6.4l3.6,9.7c0.1,0.3,0.3,0.5,0.6,0.7c0.8,0.5,3.7,2.1,3.9,2.3
				c0.7,0.5,1.7,0.2,2.1-0.5c0.1-0.1,0.1-0.2,0.2-0.4l4.7-16C157.6,114.4,153.4,113.5,153.4,113.5z"/>
			<path class="st14" d="M153.4,113.5c0.6-2.7-10.6,3.7-11.2,6.4l3.6,9.7c0.1,0.3,0.3,0.5,0.6,0.7c0.8,0.5,3.7,2.1,3.9,2.3
				c0.7,0.5,1.7,0.2,2.1-0.5c0.1-0.1,0.1-0.2,0.2-0.4l4.7-16C157.6,114.4,153.4,113.5,153.4,113.5z"/>
			<path class="st2" d="M191.4,60l-93.2,53.8c-0.9,0.6-1.4,1.5-1.5,2.6v30.4c0.1,1.1,0.6,2,1.5,2.6l0.9,0.5c0.9,0.5,2.1,0.5,3,0
				L195.3,96c0.9-0.6,1.4-1.5,1.5-2.6V63.1c-0.1-1.1-0.6-2-1.5-2.6l-0.9-0.5C193.4,59.5,192.3,59.5,191.4,60z"/>
			<path class="st15" d="M191.4,60l-93.2,53.8c-0.9,0.6-1.4,1.5-1.5,2.6v30.4c0.1,1.1,0.6,2,1.5,2.6l0.9,0.5c0.9,0.5,2.1,0.5,3,0
				L195.3,96c0.9-0.6,1.4-1.5,1.5-2.6V63.1c-0.1-1.1-0.6-2-1.5-2.6l-0.9-0.5C193.4,59.5,192.3,59.5,191.4,60z"/>
			<path class="st2" d="M196.8,63.1v0.6c0-0.8-0.6-1.4-1.4-1.4c-0.2,0-0.5,0.1-0.7,0.2l-92.1,53.2c-0.6,0.4-1.2,0.9-1.5,1.5l0,0
				l-4-2.3c0.3-0.5,0.6-0.9,1.1-1.1L191.4,60c0.9-0.5,2.1-0.5,3,0l0.9,0.5C196.2,61.1,196.7,62,196.8,63.1z"/>
			<path class="st16" d="M196.8,63.1v0.6c0-0.8-0.6-1.4-1.4-1.4c-0.2,0-0.5,0.1-0.7,0.2l-92.1,53.2c-0.6,0.4-1.2,0.9-1.5,1.5l0,0
				l-4-2.3c0.3-0.5,0.6-0.9,1.1-1.1L191.4,60c0.9-0.5,2.1-0.5,3,0l0.9,0.5C196.2,61.1,196.7,62,196.8,63.1z"/>
			<path class="st11" d="M195.4,62.8c-0.1,0-0.3,0-0.4,0.1l-92.1,53.2c-1.1,0.6-1.8,1.8-1.8,3.1v29.1c0,0.3,0,0.9,0.6,0.9
				c0.2,0,0.5-0.1,0.7-0.2l44.7-25.8l3,8.3c0.3,0.8,1.3,1.1,2.1,0.8c0.4-0.2,0.7-0.5,0.9-0.9l4-13.9l37.4-21.6
				c1.2-0.7,1.8-1.4,1.8-2.3V63.7C196.2,63.2,195.9,62.8,195.4,62.8z"/>
			<path class="st17" d="M101.7,149.8c-0.7,0-1.1-0.6-1.1-1.5v-29.1c0-1.5,0.8-2.8,2.1-3.6l92.1-53.2c0.2-0.1,0.4-0.2,0.7-0.2
				c0.8,0,1.4,0.6,1.4,1.4v29.9c-0.1,1.2-0.9,2.3-2.1,2.8l-37.2,21.5l-4,13.7c-0.3,0.8-1,1.4-1.9,1.5c-0.9,0-1.7-0.5-2-1.2l-2.8-7.7
				l-44.2,25.5C102.4,149.7,102.1,149.8,101.7,149.8z M195.4,63.4c0,0-0.1,0-0.1,0l-92.1,53.2c-0.9,0.5-1.5,1.6-1.5,2.7v29.1
				c0,0.1,0,0.3,0.1,0.4c0.1,0,0.3-0.1,0.4-0.1l45.3-26.2l3.2,8.9c0.2,0.5,0.8,0.8,1.3,0.6c0.3-0.1,0.5-0.4,0.6-0.7l4.1-14.1
				l0.2-0.1l37.4-21.6c1.4-0.8,1.5-1.4,1.5-1.9V63.7C195.7,63.5,195.6,63.4,195.4,63.4z"/>
		</g>
		<path class="st6" d="M109.7,138c-0.6,0-1.3-0.4-1.3-1.6v-14.5c0-0.9,0.4-1.7,1.2-2.2l0.3-0.2c0.3-0.2,0.5-0.2,0.8-0.2
			c0.6,0,1.1,0.4,1.3,1l1.7,4.2v-5.7c0-0.9,0.4-1.7,1.2-2.2l0.2-0.1c0.2-0.2,0.5-0.2,0.8-0.2c0.6,0,1.1,0.4,1.2,1
			c0.1-0.3,0.2-0.5,0.3-0.8l0.6-1c0.3-0.5,0.7-1,1.2-1.3l3.3-1.9c0.3-0.2,0.6-0.3,0.9-0.3c0.4,0,0.7,0.1,1,0.4l0,0
			c0-0.8,0.5-1.5,1.2-1.9l5.4-3.1c0.2-0.2,0.5-0.2,0.8-0.2c0.6,0,1.3,0.4,1.3,1.6v0.2c0,0.9-0.4,1.7-1.2,2.1l-1.2,0.7
			c-0.1,0-0.2,0.1-0.2,0.5v12.4c0,0.9-0.4,1.7-1.1,2.2l-0.2,0.1c-0.2,0.1-0.5,0.2-0.8,0.2c-0.6,0-1.3-0.4-1.3-1.6v-11.7l-0.5,0.3
			c-0.2,0.2-0.5,0.2-0.8,0.2h-0.1v11.7c0,0.6-0.2,1.2-0.4,1.8l-0.6,1.1c-0.3,0.5-0.7,1-1.2,1.3l-3.3,1.9c-0.3,0.2-0.6,0.3-1,0.3
			c-0.3,0-0.7-0.1-0.9-0.3l-0.6-0.4c-0.2-0.2-0.4-0.4-0.5-0.6v1.4c0,0.9-0.4,1.7-1.2,2.1l-0.2,0.1c-0.3,0.2-0.5,0.2-0.8,0.2
			c-0.6,0-1.1-0.4-1.3-1l-1.9-4.6v6.1c0,0.9-0.4,1.7-1.2,2.1l-0.2,0.1C110.3,137.9,110,138,109.7,138z M120.7,117.6
			c-0.1,0-0.2,0.1-0.2,0.5v9.7l1.5-0.9c0.1,0,0.2-0.1,0.2-0.5v-9.7L120.7,117.6z M136.3,122.7c-0.6,0-1.3-0.4-1.3-1.6v-14.5
			c0-0.9,0.4-1.7,1.2-2.1l5.4-3.1c0.2-0.2,0.5-0.2,0.8-0.2c0.5,0,1,0.3,1.1,0.8c0.1-0.2,0.1-0.3,0.2-0.5l0.6-1
			c0.3-0.5,0.7-1,1.2-1.3l3.3-1.9c0.3-0.2,0.6-0.3,0.9-0.3c0.4,0,0.7,0.1,1,0.3l0.5,0.4c0.2,0.2,0.4,0.4,0.5,0.7v-1.4
			c0-0.9,0.4-1.7,1.2-2.1l0.2-0.1c0.2-0.2,0.5-0.2,0.8-0.2c0.6,0,1.3,0.4,1.3,1.6v11.7l1.5-0.9c0.1,0,0.2-0.1,0.2-0.5V93.9
			c-0.1-0.9,0.4-1.7,1.1-2.1l0.2-0.1c0.2-0.2,0.5-0.2,0.8-0.2c0.5,0,0.9,0.2,1.1,0.7l0,0c0-0.9,0.4-1.7,1.2-2.2l0.3-0.2
			c0.2-0.2,0.5-0.2,0.8-0.2c0.6,0,1.1,0.4,1.3,1l1.7,4.2V89c0-0.9,0.4-1.7,1.2-2.1l0.2-0.1c0.2-0.2,0.5-0.2,0.8-0.2
			c0.5,0,0.9,0.3,1.1,0.7l0,0c0-0.9,0.4-1.7,1.2-2.2l4.3-2.5c0.3-0.2,0.6-0.3,0.9-0.3c0.4,0,0.7,0.1,1,0.4l0.5,0.4
			c0.5,0.4,0.8,1,0.7,1.7v11.7c0,0.6-0.2,1.2-0.4,1.8l-0.6,1c-0.3,0.5-0.7,1-1.2,1.3l-4.4,2.6c-0.2,0.1-0.5,0.2-0.8,0.2
			c-0.5,0-0.9-0.2-1.1-0.7l0,0c0,0.9-0.4,1.7-1.1,2.1l-0.2,0.1c-0.3,0.2-0.5,0.2-0.9,0.2c-0.6,0-1.1-0.4-1.3-0.9l-1.9-4.6v6.2
			c0,0.9-0.4,1.7-1.1,2.1l-0.2,0.1c-0.2,0.2-0.5,0.2-0.8,0.2c-0.6,0-1.1-0.4-1.2-1c-0.1,0.3-0.2,0.5-0.3,0.8l-0.6,1
			c-0.3,0.6-0.7,1-1.2,1.3l-3.3,1.9c-0.3,0.2-0.6,0.3-0.9,0.3c-0.4,0-0.7-0.1-1-0.3l-0.5-0.4c-0.2-0.2-0.4-0.4-0.5-0.7
			c0,0.6-0.2,1.2-0.4,1.8l-0.6,1c-0.3,0.5-0.7,1-1.2,1.3l-3.3,1.9c-0.3,0.2-0.6,0.3-1,0.3c-0.3,0-0.7-0.1-0.9-0.3l-0.6-0.4
			c-0.5-0.4-0.8-1-0.7-1.7V112c-0.2,0.3-0.5,0.6-0.8,0.7l-3.8,2.2c-0.1,0.1-0.2,0.1-0.2,0.5v4.7c0,0.9-0.4,1.7-1.2,2.1l-0.2,0.1
			C136.8,122.5,136.5,122.7,136.3,122.7L136.3,122.7z M146.9,102.5c-0.1,0-0.2,0.1-0.2,0.5v9.7l1.5-0.9c0.1,0,0.2-0.1,0.2-0.5v-9.7
			L146.9,102.5z M143.3,104.4c-0.2,0.3-0.5,0.6-0.8,0.8l-3.8,2.2c-0.1,0.1-0.2,0.1-0.2,0.5v3.1l3.1-1.8c0.2-0.2,0.5-0.2,0.8-0.2
			c0.3,0,0.7,0.1,0.9,0.4L143.3,104.4z M172.4,87.8c-0.1,0-0.2,0.1-0.2,0.5v9.6l1.5-0.9c0.1,0,0.2-0.1,0.2-0.5V87L172.4,87.8z
			 M186.7,95.6c-0.6,0-1.2-0.4-1.3-1l-0.9-2.4c-0.1-0.4-0.2-0.8-0.3-1.2l-0.6-4.6c0-0.4,0-0.6,0-0.7s0-0.3,0-0.7l0.6-5.3
			c0.1-0.5,0.1-0.9,0.2-1.3l0.9-3.6c0.2-0.7,0.6-1.3,1.2-1.7l0.3-0.2c0.2-0.2,0.5-0.2,0.8-0.2h0.2h0.2c0.5,0.2,0.9,0.7,0.8,1.3
			c0,0.2,0,0.5-0.1,0.7l-1,3.4c-0.1,0.3-0.2,0.7-0.2,1.1l-0.5,5c0,0.2,0,0.4,0,0.5s0,0.2,0,0.5l0.5,4.4c0,0.2,0.1,0.5,0.2,0.7l1,2.3
			c0.1,0.2,0.1,0.5,0.1,0.8c0,0.4-0.1,0.7-0.3,1c-0.2,0.3-0.5,0.6-0.8,0.8l-0.3,0.2C187.3,95.4,187,95.5,186.7,95.6L186.7,95.6z
			 M181.4,93.2c-0.6,0-1.3-0.4-1.3-1.5v-1c-0.1-0.9,0.4-1.7,1.1-2.2l0.4-0.2c0.2-0.1,0.5-0.2,0.8-0.2c0.6,0,1.3,0.4,1.3,1.6v1
			c0,0.9-0.4,1.7-1.2,2.1l-0.4,0.2C182,93.1,181.7,93.2,181.4,93.2L181.4,93.2z M181.4,84.8c-0.6,0-1.3-0.4-1.3-1.6v-1
			c-0.1-0.9,0.4-1.7,1.1-2.2l0.4-0.2c0.2-0.2,0.5-0.2,0.8-0.2c0.6,0,1.3,0.4,1.3,1.6v1c0,0.9-0.4,1.7-1.2,2.1l-0.4,0.2
			C182,84.8,181.7,84.9,181.4,84.8L181.4,84.8z"/>
		<path class="st8" d="M109.7,137.5c-0.2,0-0.8-0.1-0.8-1.1v-14.5c-0.1-0.7,0.3-1.4,0.9-1.7l0.3-0.2c0.2-0.1,0.4-0.2,0.6-0.2
			c0.4,0,0.8,0.3,0.9,0.7l2.6,6.5c0-0.1,0-0.1,0-0.2v-8c-0.1-0.7,0.3-1.4,0.9-1.7l0.2-0.1c0.2-0.1,0.4-0.2,0.6-0.2
			c0.2,0,0.8,0.1,0.8,1.1v14.5c0,0.7-0.3,1.4-0.9,1.7l-0.2,0.1c-0.2,0.1-0.4,0.2-0.6,0.2c-0.4,0-0.7-0.3-0.9-0.6l-2.8-6.8
			c0,0.1,0,0.1,0,0.2v8.4c0,0.7-0.3,1.4-0.9,1.7l-0.2,0.1C110.2,137.5,109.9,137.5,109.7,137.5z M119.3,132c-0.2,0-0.5-0.1-0.7-0.2
			l-0.6-0.4c-0.4-0.3-0.6-0.8-0.5-1.3v-11.7c0-0.5,0.1-1.1,0.4-1.6l0.6-1.1c0.2-0.5,0.6-0.9,1-1.1l3.3-1.9c0.2-0.1,0.5-0.2,0.7-0.2
			c0.2,0,0.5,0.1,0.7,0.2l0.5,0.4c0.4,0.3,0.6,0.8,0.5,1.3v11.7c0,0.5-0.1,1.1-0.4,1.6l-0.6,1c-0.2,0.5-0.6,0.9-1,1.1l-3.3,1.9
			C119.8,131.9,119.5,131.9,119.3,132L119.3,132z M120.5,117.2c-0.3,0.2-0.5,0.5-0.4,0.9c0,0,0,10.5,0,10.5l2.2-1.3
			c0.3-0.2,0.5-0.5,0.4-0.9c0,0,0-10.5,0-10.5L120.5,117.2z M128.4,126.8c-0.2,0-0.8-0.1-0.8-1.1v-12.5l-1.2,0.7
			c-0.2,0.1-0.4,0.2-0.6,0.2c-0.2,0-0.8-0.1-0.8-1.1v-0.2c0-0.7,0.3-1.4,0.9-1.7l5.4-3.1c0.2-0.1,0.4-0.2,0.6-0.2
			c0.2,0,0.8,0.1,0.8,1.1v0.2c0,0.7-0.3,1.3-0.9,1.7l-1.2,0.7c-0.3,0.2-0.5,0.5-0.4,0.9v12.4c0.1,0.7-0.3,1.4-0.9,1.7l-0.2,0.1
			C128.8,126.7,128.6,126.8,128.4,126.8L128.4,126.8z M136.3,122.2c-0.2,0-0.8-0.1-0.8-1.1v-14.5c0-0.7,0.3-1.4,0.9-1.7l5.4-3.1
			c0.2-0.1,0.4-0.2,0.6-0.2c0.2,0,0.8,0.1,0.8,1.1v0.3c0,0.7-0.3,1.4-0.9,1.7l-3.8,2.2c-0.3,0.2-0.5,0.5-0.4,0.9v3.9l3.8-2.2
			c0.2-0.1,0.4-0.2,0.6-0.2c0.2,0,0.8,0.1,0.8,1.1v0.2c0,0.7-0.3,1.4-0.9,1.7l-3.8,2.2c-0.3,0.2-0.5,0.5-0.4,0.9v4.7
			c0,0.7-0.3,1.4-0.9,1.7l-0.2,0.1C136.7,122.2,136.5,122.2,136.3,122.2L136.3,122.2z M145.4,116.9c-0.2,0-0.5-0.1-0.6-0.2l-0.6-0.4
			c-0.4-0.3-0.6-0.8-0.5-1.3v-11.7c0-0.5,0.1-1.1,0.4-1.5l0.6-1.1c0.2-0.5,0.6-0.9,1-1.1l3.3-1.9c0.2-0.1,0.5-0.2,0.7-0.2
			c0.2,0,0.5,0.1,0.7,0.2l0.5,0.4c0.4,0.3,0.6,0.8,0.5,1.3v11.7c0,0.5-0.1,1.1-0.4,1.5l-0.6,1c-0.2,0.5-0.6,0.9-1,1.1l-3.3,1.9
			C145.9,116.8,145.7,116.8,145.4,116.9L145.4,116.9z M146.6,102.1c-0.3,0.2-0.5,0.5-0.4,0.9v10.5l2.2-1.3c0.3-0.2,0.5-0.5,0.4-0.9
			c0,0,0-10.5,0-10.5L146.6,102.1z M153.9,112c-0.2,0-0.5-0.1-0.7-0.2l-0.5-0.4c-0.4-0.3-0.6-0.8-0.5-1.3V96.9
			c0-0.7,0.3-1.4,0.9-1.7l0.2-0.1c0.2-0.1,0.4-0.2,0.6-0.2c0.2,0,0.8,0.1,0.8,1.1v12.6l2.2-1.3c0.3-0.2,0.5-0.5,0.4-0.9V93.9
			c0-0.7,0.3-1.4,0.9-1.7l0.2-0.1c0.2-0.1,0.4-0.2,0.6-0.2c0.2,0,0.8,0.1,0.8,1.1v13.1c0,0.5-0.1,1.1-0.4,1.5l-0.5,1
			c-0.2,0.5-0.6,0.9-1,1.2l-3.3,1.9C154.4,111.9,154.2,111.9,153.9,112L153.9,112z M161.4,107.7c-0.2,0-0.8-0.1-0.8-1.1V92.1
			c0-0.7,0.3-1.4,0.9-1.7l0.3-0.2c0.2-0.1,0.4-0.2,0.6-0.2c0.4,0,0.8,0.3,0.9,0.7l2.7,6.5c0-0.1,0-0.1,0-0.2v-8
			c0-0.7,0.3-1.4,0.9-1.7l0.2-0.1c0.2-0.1,0.4-0.2,0.6-0.2c0.2,0,0.8,0.1,0.8,1.1v14.5c0,0.7-0.3,1.4-0.9,1.7l-0.2,0.1
			c-0.2,0.1-0.4,0.2-0.6,0.2l0,0c-0.4,0-0.7-0.3-0.9-0.7l-2.8-6.8c0,0.1,0,0.1,0,0.2v8.4c0,0.7-0.3,1.4-0.9,1.7l-0.2,0.1
			C161.9,107.6,161.6,107.7,161.4,107.7L161.4,107.7z M170,102.7c-0.2,0-0.8-0.1-0.8-1.1V87.1c0-0.7,0.3-1.4,0.9-1.7l4.3-2.5
			c0.2-0.1,0.5-0.2,0.7-0.2c0.2,0,0.5,0.1,0.7,0.2l0.5,0.4c0.4,0.3,0.6,0.8,0.5,1.3v11.7c0,0.5-0.1,1.1-0.4,1.6l-0.6,1
			c-0.2,0.5-0.6,0.9-1,1.1l-4.4,2.5C170.4,102.6,170.2,102.7,170,102.7L170,102.7z M172.1,87.4c-0.3,0.2-0.5,0.5-0.4,0.9v10.5
			l2.2-1.3c0.3-0.2,0.5-0.5,0.4-0.9V86.1L172.1,87.4z M186.7,95.1c-0.4,0-0.8-0.3-0.9-0.7l-0.9-2.4c-0.1-0.3-0.2-0.7-0.2-1l-0.6-4.7
			c0-0.3,0-0.5,0-0.6s0-0.3,0-0.6l0.6-5.3c0-0.4,0.1-0.9,0.2-1.3l0.9-3.6c0.1-0.6,0.5-1.1,1-1.4l0.3-0.2c0.2-0.1,0.4-0.2,0.6-0.2
			h0.1l0.2,0.1c0.3,0.1,0.5,0.5,0.5,0.8c0,0.2,0,0.4-0.1,0.6l-1,3.4c-0.1,0.4-0.2,0.8-0.2,1.2l-0.5,5c0,0.3,0,0.4,0,0.5
			c0,0.2,0,0.3,0,0.5l0.5,4.4c0,0.3,0.1,0.6,0.2,0.8l1,2.3c0.1,0.2,0.1,0.4,0.1,0.6c0,0.3-0.1,0.6-0.2,0.8c-0.2,0.3-0.4,0.5-0.6,0.6
			l-0.3,0.2C187.1,95.1,186.9,95.1,186.7,95.1L186.7,95.1z M181.3,92.7c-0.2,0-0.8-0.1-0.8-1.1v-1c-0.1-0.7,0.3-1.4,0.9-1.8l0.4-0.2
			c0.2-0.1,0.4-0.2,0.6-0.2c0.2,0,0.8,0.1,0.8,1.2v1c0,0.7-0.3,1.3-0.9,1.7l-0.4,0.2C181.8,92.6,181.6,92.7,181.3,92.7L181.3,92.7z
			 M181.3,84.3c-0.2,0-0.8-0.1-0.8-1.1v-1c0-0.7,0.3-1.4,0.9-1.8l0.4-0.2c0.2-0.1,0.4-0.2,0.6-0.2c0.2,0,0.8,0.1,0.8,1.2v1
			c0.1,0.7-0.3,1.4-0.9,1.7l-0.4,0.2C181.8,84.3,181.6,84.4,181.3,84.3L181.3,84.3z"/>
		<path class="st7" d="M142,102.2l-5.4,3.1c-0.5,0.3-0.7,0.8-0.7,1.3v14.5c0,0.6,0.2,0.8,0.7,0.5l0.2-0.1c0.5-0.3,0.7-0.8,0.7-1.3
			v-4.7c0-0.5,0.2-1,0.7-1.3l3.8-2.2c0.5-0.3,0.7-0.8,0.7-1.3v-0.2c0-0.6-0.2-0.8-0.7-0.5l-3.8,2.2c-0.5,0.3-0.7,0.1-0.7-0.5v-3.8
			c0-0.5,0.2-1,0.7-1.3l3.8-2.2c0.5-0.3,0.7-0.8,0.7-1.3v-0.2C142.6,102.1,142.4,102,142,102.2z M115.6,117.4l-0.2,0.1
			c-0.5,0.3-0.7,0.8-0.7,1.3v8c0,0.2,0,0.4-0.1,0.6c0,0.1-0.1,0.3-0.2,0.3c-0.1,0.1-0.2,0.1-0.2,0c-0.1-0.1-0.2-0.2-0.2-0.3
			l-2.7-6.8c-0.2-0.4-0.4-0.5-0.8-0.2l-0.3,0.2c-0.5,0.3-0.7,0.8-0.7,1.3v14.5c0,0.6,0.2,0.8,0.7,0.5l0.2-0.1
			c0.5-0.3,0.7-0.8,0.7-1.3v-8.4c0-0.2,0-0.4,0.1-0.6c0-0.1,0.1-0.3,0.2-0.4c0.2-0.1,0.3,0,0.4,0.3l2.9,7.2c0.2,0.4,0.4,0.4,0.8,0.2
			l0.2-0.1c0.5-0.3,0.7-0.8,0.7-1.3v-14.5C116.3,117.3,116.1,117.1,115.6,117.4z M150.1,98c-0.2-0.2-0.6-0.2-0.8,0l-3.3,1.9
			c-0.4,0.2-0.7,0.6-0.8,0.9l-0.5,1c-0.2,0.4-0.3,0.9-0.3,1.3v11.7c0,0.3,0.1,0.7,0.3,0.9l0.6,0.4c0.2,0.2,0.6,0.2,0.8,0l3.3-1.9
			c0.4-0.2,0.7-0.6,0.8-0.9l0.5-1c0.2-0.4,0.3-0.9,0.3-1.3V99.3c0-0.3-0.1-0.7-0.3-0.9L150.1,98z M149.4,111.3c0,0.5-0.2,1-0.7,1.3
			l-2.3,1.3c-0.5,0.3-0.7,0.1-0.7-0.5V103c0-0.5,0.2-1,0.7-1.3l2.3-1.3c0.4-0.3,0.7-0.1,0.7,0.5V111.3z M123.9,113.1
			c-0.2-0.2-0.6-0.2-0.8,0l-3.3,1.9c-0.4,0.2-0.7,0.5-0.8,0.9l-0.5,1c-0.2,0.4-0.3,0.9-0.3,1.3V130c0,0.3,0.1,0.7,0.3,0.9l0.6,0.4
			c0.2,0.2,0.6,0.2,0.8,0l3.3-1.9c0.4-0.2,0.7-0.6,0.8-0.9l0.5-1c0.2-0.4,0.3-0.9,0.3-1.3v-11.7c0-0.3-0.1-0.7-0.3-0.9L123.9,113.1z
			 M123.2,126.4c0,0.5-0.2,1-0.7,1.3l-2.3,1.3c-0.5,0.3-0.7,0.1-0.7-0.5v-10.4c0-0.5,0.2-1,0.7-1.3l2.3-1.3c0.5-0.3,0.7-0.1,0.7,0.5
			L123.2,126.4z M131.5,108.2l-5.4,3.1c-0.5,0.3-0.7,0.8-0.7,1.3v0.2c0,0.6,0.2,0.8,0.7,0.5l1.2-0.7c0.4-0.3,0.7-0.1,0.7,0.5v12.4
			c0,0.6,0.2,0.8,0.7,0.5l0.2-0.1c0.5-0.3,0.7-0.8,0.7-1.3v-12.4c0-0.5,0.2-1,0.7-1.3l1.2-0.7c0.5-0.3,0.7-0.8,0.7-1.3v-0.2
			C132.2,108.2,132,108,131.5,108.2z M158.7,92.5l-0.2,0.1c-0.5,0.3-0.7,0.8-0.7,1.3v12.4c0,0.5-0.2,1-0.7,1.3l-2.3,1.3
			c-0.5,0.3-0.7,0.1-0.7-0.5V96c0-0.6-0.2-0.8-0.7-0.5l-0.2,0.1c-0.5,0.3-0.7,0.8-0.7,1.3V110c0,0.3,0.1,0.7,0.4,0.9l0.6,0.4
			c0.2,0.2,0.6,0.2,0.8,0l3.3-1.9c0.4-0.2,0.7-0.6,0.8-1l0.6-1c0.2-0.4,0.3-0.9,0.3-1.3V93C159.4,92.4,159.1,92.3,158.7,92.5z
			 M182.1,89.1l-0.4,0.2c-0.5,0.3-0.7,0.8-0.7,1.3v1c0,0.6,0.2,0.7,0.7,0.5l0.4-0.2c0.4-0.3,0.7-0.7,0.7-1.2v-1
			C182.8,89,182.5,88.8,182.1,89.1L182.1,89.1z M186.9,90.7c-0.1-0.3-0.2-0.7-0.2-1l-0.5-4.4c0-0.3,0-0.4,0-0.6s0-0.3,0-0.6l0.5-5
			c0-0.4,0.1-0.8,0.2-1.2l1-3.4c0-0.2,0.1-0.3,0.1-0.5c0-0.2-0.1-0.3-0.1-0.4c-0.2,0-0.3,0-0.4,0.1L187,74c-0.4,0.3-0.7,0.7-0.8,1.1
			l-1,3.6c-0.1,0.4-0.2,0.8-0.2,1.2l-0.6,5.2c0,0.3,0,0.5,0,0.6s0,0.3,0,0.6l0.6,4.6c0,0.3,0.1,0.6,0.2,0.9l1,2.5
			c0.1,0.4,0.4,0.5,0.8,0.3l0.3-0.2c0.2-0.1,0.3-0.3,0.4-0.4c0.1-0.2,0.1-0.4,0.1-0.6c0-0.1,0-0.3-0.1-0.4L186.9,90.7z M182.1,80.7
			l-0.4,0.2c-0.5,0.3-0.7,0.8-0.7,1.3v1c0,0.6,0.2,0.7,0.7,0.5l0.4-0.2c0.4-0.3,0.7-0.7,0.7-1.3v-1
			C182.8,80.7,182.5,80.5,182.1,80.7L182.1,80.7z M167.3,87.6l-0.2,0.1c-0.5,0.3-0.7,0.8-0.7,1.3v8c0,0.2,0,0.4-0.1,0.6
			c0,0.1-0.1,0.3-0.2,0.3c-0.1,0-0.2,0-0.2,0c-0.1-0.1-0.2-0.2-0.2-0.3l-2.7-6.8c-0.1-0.4-0.4-0.5-0.8-0.2l-0.3,0.2
			c-0.5,0.3-0.7,0.8-0.7,1.3v14.5c0,0.6,0.2,0.8,0.7,0.5l0.2-0.1c0.5-0.3,0.7-0.8,0.7-1.3v-8.4c0-0.2,0-0.4,0.1-0.6
			c0-0.1,0.1-0.3,0.3-0.3c0.2-0.1,0.3,0,0.4,0.3l2.9,7.2c0.1,0.4,0.4,0.4,0.8,0.2l0.2-0.1c0.5-0.3,0.7-0.8,0.7-1.3V88.1
			C168,87.5,167.8,87.3,167.3,87.6z M175.5,83.3c-0.2-0.2-0.6-0.2-0.8,0l-4.3,2.5c-0.5,0.3-0.7,0.8-0.7,1.3v14.5
			c0,0.6,0.2,0.8,0.7,0.5l4.3-2.5c0.4-0.2,0.6-0.6,0.8-0.9l0.6-1c0.2-0.4,0.3-0.9,0.3-1.3V84.7c0-0.3-0.1-0.7-0.3-0.9L175.5,83.3z
			 M174.9,96.6c0,0.5-0.2,1-0.7,1.3l-2.3,1.3c-0.5,0.3-0.7,0.1-0.7-0.5V88.3c0-0.5,0.2-1,0.7-1.3l2.3-1.3c0.4-0.3,0.7-0.1,0.7,0.5
			V96.6z"/>
	</g>
</g>
<g id="freepik--Character--inject-76">
	<path id="freepik--shadow--inject-76_00000093892060817135103360000005720140973821173419_" class="st4" d="M336.8,378.6
		c-4-1.8-8.2-3.1-12.5-3.8c-2.7-0.4-5.4-0.4-8,0.1c-1.9,0.4-3.7,1-5.4,1.9c-5.9,2.9-6.7,6.2-6.9,8.9s1.3,6.4,6.2,9.8l83.4,58.4
		c15.2-8.1,29.3-18,42-29.6C399.2,407.5,340.1,380,336.8,378.6z"/>
	<g id="freepik--character--inject-76">
		<g id="freepik--Arm--inject-76">
			<path id="freepik--arm--inject-76" class="st18" d="M363.5,255.6c5.1,1,7.1,1.4,9.6,5.6s6.6,20,7.8,23.3s1.5,4.5,1,8.1
				c-0.5,3.8-2.7,10.5-3.7,14.2c-0.4,1.7-0.7,3.4-1,5.1c-0.4,1.8-1,3.5-1.7,5.3c-0.3,0.8-0.8,1.6-1.5,2.1c-0.4,0.4-1,0.4-1.4,0.8
				s-0.5,0.9-1.1,1.2s-1.3,0.1-1.9,0.4c-0.5,0.4-1.1,0.8-1.7,1.1c-0.5,0.2-1,0.4-1.4,0.8c-0.4,0.4-0.7,1.3-1.4,1.2s-0.8-0.8-0.9-1.4
				c0-1.2,0.4-2.3,1.1-3.2c0.6-1,1.3-2,2.1-3c0.7-0.9,1.3-1.9,1.5-3c0.2-0.8,0.2-1.7-0.8-1.3c-1.1,0.5-2.3,1.6-3.7,1.4
				c-0.9-0.2-1-0.9-0.5-1.5c0.9-1,1.7-2.1,2.5-3.2c0.8-1.2,1.4-2.4,2.2-3.5c0.4-0.6,0.9-1.2,1.4-1.7c1.4-1.5,1.3-3.5,1.5-5.5
				c0.2-2.6,0.4-9.5,0.4-9.5l-6.2-15.3L363.5,255.6z"/>
			<path id="freepik--arm--inject-76_00000058555195089764849990000006654208460942105270_" class="st19" d="M371.5,298.9
				c0.1-3.1,0.2-6.3,0.3-9.5c-2-4.9-4.1-10.2-6.1-15.3c2.2,5.1,4.3,10.1,6.3,15.2C371.9,292.6,371.7,295.7,371.5,298.9L371.5,298.9z
				"/>
		</g>
		<g id="freepik--Bottom--inject-76">
			<path class="st6" d="M328.9,374.2c1.8-0.6,3.1-0.7,3,0.2c-0.2,1.1-0.6,2.1-1.1,3.1l-1.4,1.9l-0.7,1.9c0,0-0.8,1-0.9,1.1
				s-0.3-3.5-0.3-3.5S326.5,374.7,328.9,374.2z"/>
			<path class="st6" d="M347.8,300c0,0-4,4.8-6.4,13.6c-2.2,8.3-3.9,16.7-5,25.1c-0.6,3.8-1.5,8.6-2.9,16c-1,5.7-4.4,23.3-4.4,23.3
				s1.9,3.2,4.2,4.1c3.3,1.4,6.5,0.8,6.9-2.2c0,0,2.2-3.5,5.5-12.5c1.6-4.1,2.9-8.4,3.8-12.7c0.3-2.7,0.4-5.4,0.3-8.2l13.3-23.1
				c1.5-2.5,3.2-4.9,5.2-7c1.2-1.3,2.2-2.8,2.9-4.4c2.2-6-1-14.1-1-14.1L347.8,300z"/>
			<path class="st19" d="M336.5,338.8c-2.1,13.1-4.6,26.2-7.2,39.3C331.6,365,334,351.9,336.5,338.8z"/>
			<path d="M331.3,388.2l-0.7-0.1c0-0.3,5.4-27.6,9.1-39.1s13.5-34.3,13.6-34.6l0.7,0.3c-0.1,0.2-9.8,23-13.5,34.5
				S331.3,387.9,331.3,388.2z"/>
			<path d="M365.3,307.7h-21.8c-0.8,1.9-1.5,3.9-2,6c-2,7.6-3.6,15.3-4.6,23.1c0.5,3.6,1.1,7.2,1.7,9.8c1.5,6.7,2.4,11.4,3.5,14.1
				c1.1,2.3,2.4,4.5,4,6.6c1.6-4,2.8-8.2,3.7-12.4c0.3-2.7,0.4-5.4,0.3-8.2l13-22.5l0,0l0.9-3.5
				C367.1,315.2,366.8,311.2,365.3,307.7z"/>
			<path class="st8" d="M311,383.1c-0.4-0.2-0.9,1.4-0.9,1.9s1,2.8,3.7,4.4s7.4,2.6,9.2,3.1s3.2,2,5.5,3.1c2.1,1,5.2,1.5,6.5,0.9
				c0.5-0.3,0.9-0.9,1-1.5c0.4-1.1,0.3-1.4,0.2-1.4L311,383.1z"/>
			<path class="st7" d="M337.2,391.2c-0.2,1.2-0.6,2.3-1.1,3.3c-0.8,0.6-1.8,0.9-2.8,0.7c-2.1-0.2-4.2-0.9-5.9-2.1
				c-1.3-0.9-2.8-1.6-4.3-2.1c-2.1-0.5-4.1-1.2-6.1-1.9c-1.5-0.6-2.9-1.5-4.1-2.5c-1-0.9-1.9-2-1.8-3.3c0.5-1.7,1.9-2.9,3.7-3.1
				c1.6-0.1,3.3,0.2,4.8,0.7c1.5,0.5,3.1,0.8,4.6,1c1.1,0.1,2.4,1,3.2,0c1-1.1,1.4-3.7,2.1-5c0.1-0.2,0.3-0.4,0.5-0.5
				s0.6,0.2,0.8,0.5c1,1.2,2.2,2.2,3.7,2.8c3.9,1.9,5.6,0.9,5.6,0.9l0.4-0.8c0,0,0.8,0.4-0.2,2.2c-0.8,1.5-1.5,3-2.1,4.6
				C337.6,388.3,337.3,389.7,337.2,391.2z"/>
			<path class="st19" d="M311,383.3c1.2-4.5,6.3-3.3,9.6-2.1c1.2,0.4,2.4,0.7,3.6,0.8c-1.2-0.1-2.5-0.3-3.6-0.6
				C317.3,380.4,312.4,379.1,311,383.3L311,383.3z"/>
			<path class="st7" d="M320.2,381.2c-1.6,0.1-2.1,2.8-2.1,2.8c1.5,0.8,3.1,1.3,4.8,1.5c2.4,0.4,4.7-1.1,5.4-3.4
				c0.7-2.2,0.1-5.4-0.1-6.4c-0.2-0.7,0.3-1.4,1-1.6c-1.1,0.1-2,1.1-1.9,2.3c0,0,0,0.1,0,0.1c0,1.2,0,3.6-0.5,4.4
				S323.7,382,320.2,381.2z"/>
			<path class="st6" d="M361.6,300c2.4,2.8,3.8,6.4,4,10.1c0.2,3.6-1,7.2-3.2,10c-0.8,12.2-3.2,35.6-3.2,35.6
				c3.2,3.3,4,5.4,5.9,11.4c1.1,3.6,5.4,15.2,6.4,18.4c-5.6,0.7-8.7,6.3-8.7,6.3s-9.9-14.6-14.7-23.2c-3.5-6.4-5.2-8.7-6.2-12.4
				c-1.3-4.7-1.6-7.1-2.8-15s-2.3-17.9-2.8-25.7s-1-16-1-16L361.6,300z"/>
			<path class="st19" d="M362.8,391.7c-5.8-8.5-11.4-17.1-16.4-26.1c-1.6-2.6-3-5.4-4.2-8.2c-0.9-2.9-1.6-6-2.1-9
				c-2.6-16.2-4.2-32.6-4.8-49.1l0.8,12.3c0.8,12.3,2.3,24.6,4.2,36.7c0.7,4,1.5,8.1,3.3,11.8C349.5,371,355.9,381.5,362.8,391.7
				L362.8,391.7z"/>
			<path d="M348.8,359.5c-2.9-7.4-6.4-47.8-6.2-61.8h-0.7c-0.1,4.7,0.3,12.3,0.9,20.6c-2.4-1.2-3.9-3.4-3.9-14.5h-0.7
				c0,11.1,1.5,13.8,4.7,15.3c1.2,16.5,3.4,35.7,5.3,40.6c2.9,7.3,17.7,31.8,17.9,32l0.6-0.4C366.5,391.1,351.7,366.7,348.8,359.5z"
				/>
			<g id="freepik--bottom--inject-76">
				<path class="st7" d="M362,390.4c-0.9,1.3-1.9,2.1,0.6,3.8c2,1.3,2.1,2.3,2.7,3.7c0.4,1.3,0.6,2.7,0.5,4.1c0,0,3.4-5.1,2.4-8.3
					S362,390.4,362,390.4z"/>
				<path class="st7" d="M372.8,387.5c0.9,1,2.1,1.8,3.3,2.4c0.9,0.5,1.7,1,2,2c0,0.1-0.5,0.7-0.5,0.8c0,0.5,0,1,0,1.4
					c-0.2,1.6-1.1,2.9-1.3,4.5c-0.1,0.7-0.2,1.3-0.4,1.9c-0.1,0.8-0.2,1.6-0.2,2.4c0,0.8-0.1,1.6-0.1,2.5c0,0.3,0,0.7,0,1
					c0.1,0.4-5.5,3.2-7.8,4.2c-0.1,0.1-0.3,0.1-0.4,0.2c-1.4,0.4-2.8,0.2-4.1-0.4c-4.5-1.6-4.2-3.2-4.2-3.2c0-1.4,0.9-2.6,2.1-3.1
					c0.3-0.2,0.6-0.3,0.9-0.4l0,0c1.1-0.4,2.3-0.5,3.5-0.2c0.2-0.7,0.3-1.4,0.3-2.1c0.1-1.1,0.1-2.1,0-3.2c-0.2-1.2-0.7-2.3-1.4-3.3
					c-1-1.3-2-3-2.6-3.9s-0.8-3.1,2.9-5.8c3.6-2.5,6.2-2,6.7-1C371.8,385.5,372.2,386.5,372.8,387.5z"/>
				<path class="st19" d="M359,407.3c0-3.1,3.9-4.6,6.5-3.7C362.9,403.1,359.4,404.3,359,407.3z"/>
				<path class="st20" d="M363.1,405.2c0.3-0.8,0.9-1.4,1.6-1.8c0.3,0,0.5,0.1,0.8,0.1C365.1,404,363.5,404.6,363.1,405.2z"/>
				<path d="M378.6,392.9c1,0.4,0.2,2-1,4.5c-1.1,1.8-1.5,3.9-1.2,6c0.2,2.2-0.3,3.2-1.2,4s-7.9,3.8-7.9,3.8
					c1.7-2.1,2.6-4.7,2.8-7.3c0.4-4.8,0.8-7.9,3.2-9.9C374.7,392.7,376.7,392.3,378.6,392.9z"/>
				<path class="st8" d="M359,407.3c0.1,0.9,2.8,2.8,5.9,2.8s3.4-0.7,3.9-4.4s0.8-8.8,2.4-11s3.7-3.5,6.8-2.7c0.4,0.2,1.3,1.1,1,2
					c0,0,0-0.7-1.3-1.1c-1.1-0.3-2.4-0.3-4.2,1.3c-2.1,1.8-2.6,6.1-2.8,9.7s-1.4,7.2-4.4,7.5c-2.6,0.4-5.3-0.5-7.3-2.3
					C358.8,408.6,358.8,407.9,359,407.3z"/>
			</g>
		</g>
		<g id="freepik--Top--inject-76">
			<path class="st6" d="M340.9,232.7c-0.8-1.2-1-2.7-0.4-4c0.5-1.3,1.6-2.7,4.7-4.3c3.7-1.9,13.8-3.3,18.8,3.4
				c0.7,1-9.2,19.6-8.7,23.5c-2.6-2.7-11.1-12.2-11.1-12.2c-2-0.9-3.2-1.6-3.7-3.5C340.3,234.6,340.5,233.6,340.9,232.7z"/>
			<path class="st19" d="M344.2,239c-3-0.8-4.9-3.4-3.2-6.3C339.7,235.7,341.4,237.8,344.2,239z"/>
			<path class="st19" d="M340.9,232.7c-1.3-1.4-1-3.6,0-5.1c1.1-1.4,2.6-2.5,4.3-3.2c-0.8,0.4-1.5,0.9-2.2,1.5
				C340.9,227.3,339.3,230.4,340.9,232.7L340.9,232.7z"/>
			<path class="st21" d="M342.5,238c0,0-2.7,4.4-2.4,4.8c0.6,0.5,1.3,0.9,2,1.3L342.5,238z"/>
			<path class="st19" d="M342.5,238c-0.7,1.4-1.5,2.8-2.2,4.2c-0.1,0.2-0.3,0.5-0.1,0.7c0.2,0.2,0.4,0.4,0.6,0.5
				c-0.3-0.1-0.7-0.3-0.8-0.6C340.5,241,341.4,239.4,342.5,238z"/>
			<path class="st18" d="M345.8,229.9c-1.8,0.9-3.4,2.3-4,6.3c-0.1,1.1,0.7,2.5,0.3,3.9c-1.6,6,0.3,11,1.5,12.1
				c0.8,0.7,4.9,1.1,7,0.5c2.7-0.8,8.5-3.4,11.3-7.6c3.3-5,4-11.6,0.4-14.3C357.2,226.9,347.8,228.9,345.8,229.9z"/>
			<path class="st19" d="M341.9,236.1c0,1.4,0.8,2.7,0.3,4.1c-0.9,3.9-0.9,8.5,1.4,11.8c-2.6-3.3-2.6-8-1.6-11.9
				C342.5,238.9,341.7,237.5,341.9,236.1L341.9,236.1z"/>
			<path class="st18" d="M359.8,247.8l1.1,7.4l0,0c1.6,0.4,1.8,2.3,1,3.8l0.4,2.1l-11.3,2l-1.3-10.3L359.8,247.8z"/>
			<path class="st21" d="M343.8,252.2c1,0.5,3,0.9,5.9,0.5l-0.2-1.5c-0.9,0.3-1.8,0.6-2.8,0.8C345.8,252.3,344.8,252.3,343.8,252.2z
				"/>
			<path class="st6" d="M343.1,232c-0.2,1.8,1,3.4,2.7,3.9c-0.4,1-0.6,2-0.5,3.1c0.1,1.3,0.9,2.4,2.1,2.8c0.8,0.3,1-0.1,1.3-0.7
				c0.4-0.9,0.9-2.2,2.8-2c2.2,0.3,2.8,3.6,1.5,5.8c-0.5,0.9-1.4,1.5-2.5,1.7c-0.6,0-1.1-0.3-1.5-0.7c0,0,0.1,2.9,3.9,4.6
				c2.3,1.2,5,1.6,7.6,1c1.7-1.9,3.4-3.9,4.9-6c4-5.8,4.9-16.5-2-18.4c-0.3-0.1-6.6-1-9.6-0.3C344.4,228.7,343.2,231.6,343.1,232z"
				/>
			<path class="st2" d="M360,226.2c-0.8,0.6-1.4,1.5-1.6,2.5c-0.2,1,0.2,2,1,2.7c2,1.6,5.1-0.3,5.5-2.6
				C365.4,226.1,362.1,224.7,360,226.2z"/>
			<path class="st6" d="M361.7,227.1c-2,1.3-3.3,4.2-2.2,6.4c0.3,0.6,0.7,1.1,1,1.7c0.8,1.9-0.4,4.1-0.6,6.2
				c-0.2,1.7,0.1,3.3,0.8,4.8c0.7,1.1,2.2,1.4,2.8,2.6c0.4,0.8,0.1,1.8,0.3,2.7c0.4,1.9,2.6,2.8,4.6,2.9c1.7,0.1,3.3-0.5,4.5-1.6
				c0.4-0.7,0.9-1.4,1.5-2c1.2-1.1,3-1,4.3-2c1-0.8,1.5-2.1,1.4-3.4c-0.1-1.3-0.5-2.5-1-3.6c-0.8-2-0.2-3.3,0.2-5.3
				c0.4-2.3-0.8-4.5-2.9-5.4c-1.4-0.6-3.1-0.5-4.3-1.5c-0.5-0.6-1-1.3-1.5-2C368.3,225.1,364.1,225.6,361.7,227.1z"/>
			<path class="st2" d="M369.7,261.2c-0.9-2.5-2.9-4.4-5.4-5.3c-1-0.3-3.5-0.7-3.5-0.7c0.6,1.3-0.4,2.2-2.1,2.5
				c-2.2,0.5-5.5,0.6-7.7-0.9l-0.9-0.6c-2.5,0.6-4.9,1.3-7.3,2.2c-0.5,0.2-3.2,1.1-7.5,10.7c-1.8,4.1-1.3,8.2,2.1,11.2
				c0.2,2.6-1.5,8.4-1.5,8.4c-0.8,4.9-1,9.8-0.6,14.7c0,0,2,5.3,17.9,5.2c12.3,0,18.4-6,18.4-6c-0.1-3-4.9-13.5-4.4-17.1
				C368.1,280.4,372.8,271.2,369.7,261.2z"/>
			<path id="freepik--arm--inject-76_00000173867628899176949400000016698515638307924124_" class="st18" d="M342.9,258.4
				c3.2,2.6,3.5,6.2,3,11.1s-5.4,20.1-6.4,23.4s-2.4,4.5-5,7.1s-8.4,6.9-11.3,9.4c-1.4,1.1-2.6,2.3-3.9,3.5
				c-1.4,1.2-2.9,2.3-4.5,3.3c-0.7,0.5-1.6,0.8-2.5,0.9c-0.6,0-1-0.3-1.6-0.2s-1,0.5-1.6,0.4s-1.2-0.7-1.8-0.8c-0.7,0-1.3,0-2-0.1
				c-0.5-0.2-1.1-0.3-1.6-0.2c-0.5,0.1-1.3,0.6-1.8,0.2s-0.2-1.1,0.1-1.6c0.7-1,1.7-1.7,2.8-2c1.1-0.5,2.3-0.9,3.5-1.2
				c1.1-0.3,2.1-0.8,3-1.6c0.6-0.5,1.1-1.3,0.1-1.5c-1.2-0.2-2.8-0.1-3.8-1.1c-0.7-0.7-0.3-1.3,0.5-1.5c1.3-0.3,2.6-0.7,3.9-1.2
				c1.3-0.5,2.5-1.1,3.8-1.6c0.7-0.2,1.4-0.4,2.1-0.5c2-0.4,3.1-2.1,4.4-3.5c1.7-2,4.7-5.8,6.8-8.6l3.1-14.9
				C334.3,267.6,335,260.8,342.9,258.4z"/>
			<path class="st18" d="M345.9,269.5c-0.8,4.4-1.9,8.7-3.2,13c-0.1,0.4-0.2,0.7-0.3,1c-1.2,4.2-2.4,7.9-2.9,9.4
				c-0.9,3-2.2,4.2-4.3,6.4l-0.7,0.7c-2.6,2.8-8.4,6.9-11.3,9.4c-1.4,1.1-2.6,2.3-3.9,3.5c-1.4,1.2-2.9,2.3-4.5,3.3
				c-0.7,0.5-1.6,0.8-2.5,0.9c-0.6,0-1-0.3-1.6-0.2s-1,0.5-1.6,0.4s-1.2-0.7-1.8-0.8c-0.7,0-1.3,0-2-0.1c-0.5-0.2-1.1-0.2-1.6-0.2
				c-0.2,0-0.4,0.1-0.5,0.2l-0.2,0.1c-0.1,0-0.2,0.1-0.4,0.1c-0.2,0-0.5,0-0.6-0.2c-0.5-0.5-0.2-1.1,0.1-1.6c0.7-1,1.7-1.7,2.8-2
				c1.1-0.5,2.3-0.9,3.5-1.2c1.1-0.3,2.1-0.8,3-1.6c0.6-0.5,1.1-1.3,0.1-1.5c-1.2-0.2-2.8-0.1-3.8-1.1c-0.7-0.7-0.3-1.3,0.5-1.5
				c1.3-0.3,2.6-0.7,3.9-1.2c1.3-0.5,2.5-1.1,3.8-1.6c0.7-0.2,1.4-0.4,2.1-0.5c2-0.4,3.1-2.1,4.4-3.5c1.7-2,4.7-5.8,6.8-8.6
				l3.1-14.9c1.9-8.1,2.6-14.9,10.5-17.3c0.8,0.7,1.5,1.5,2,2.4C346.2,263.1,346.2,265.9,345.9,269.5z"/>
			<path id="freepik--arm--inject-76_00000109020384799683632040000008482559804891453105_" class="st19" d="M302,316.4
				c-0.4-0.4-0.4-1-0.1-1.4c0.8-1.5,2.4-2.1,3.8-2.6c1-0.4,2-0.8,3-1c1-0.3,1.9-0.8,2.7-1.4c-0.8,0.7-1.7,1.2-2.7,1.6
				c-2,0.5-3.9,1.3-5.7,2.3C302.4,314.3,301.3,315.5,302,316.4L302,316.4z"/>
			<path id="freepik--arm--inject-76_00000066475786238453953230000006131710315830229943_" class="st19" d="M307.7,307.4
				c-1.2-1.4,1.2-1.6,2.1-1.9c2.4-0.6,4.5-1.9,6.8-2.6c1.2-0.2,2.3-0.6,3.4-1.3c1.6-1.3,3.4-3.9,4.7-5.5l4.5-5.7
				c1-5,2.6-12.8,3.8-17.9c1.3-6,3.2-12.4,9.9-14.2c-6.6,1.9-8.5,8.2-9.7,14.2c-1.2,5.2-2.6,12.7-3.8,18l-4.5,5.7
				c-1.4,1.6-3.1,4.2-4.8,5.5c-1,0.7-2.2,1.1-3.4,1.3c-2.3,0.6-4.5,1.9-6.9,2.5C308.9,305.9,306.5,306,307.7,307.4L307.7,307.4z"/>
		</g>
		<path id="freepik--shadow--inject-76_00000110462374896982438470000002795954091052957107_" class="st12" d="M365.5,323.4
			c0,0.4,0.1,0.8,0.3,1.1c0.2-0.3,0.4-0.6,0.6-0.8c0.4-0.4,0.9-0.7,1.4-0.8c0.6-0.3,1.1-0.7,1.7-1.1c0.5-0.3,1.3-0.1,1.9-0.4
			s0.6-0.9,1.1-1.2s1-0.4,1.4-0.8c0.7-0.6,1.2-1.3,1.5-2.1c0.7-1.7,1.3-3.5,1.7-5.3c0.3-1.8,0.6-3.4,1-5.1
			c0.9-3.7,3.2-10.5,3.7-14.2c0.5-3.6,0.1-4.8-1-8.1s-5.3-19-7.8-23.3c-2.3-4-4.2-4.5-8.8-5.4l-0.3-0.1l-0.5-0.1l-0.4-0.1l-0.5-0.1
			l-0.3-0.1l-0.7-0.1l-0.5-0.1h-0.1h-0.2l-0.5-3.7h0.1c0.8-1,1.7-1.9,2.6-3.1c0.1,0.1,0.2,0.3,0.3,0.4c0.4,0.8,0.1,1.8,0.3,2.7
			c0.4,1.9,2.6,2.8,4.6,2.9c1.7,0.1,3.3-0.5,4.5-1.6c0.5-0.7,0.9-1.4,1.5-2c1.2-1.1,3-1,4.3-2c1-0.9,1.5-2.1,1.4-3.4
			c-0.1-1.3-0.5-2.5-1-3.6c-0.8-2-0.2-3.3,0.2-5.3c0.4-2.3-0.8-4.5-2.9-5.4c-1.4-0.6-3.1-0.5-4.3-1.5c-0.5-0.6-1-1.3-1.5-2
			c-1.6-1.8-4.4-1.9-6.6-1.3c-0.6-0.4-1.2-0.6-1.9-0.6c-3.1-2.4-7.2-3-10.7-2.7c-1.3,0.6-2.5,1.4-3.5,2.4c-3.1,3.1-5,7.7-4.2,12
			c0.2,0.8,0.4,1.6,0.5,2.4c0.3,2.1-0.1,4.2-0.1,6.3s0.7,4.4,2.5,5.4c1.4,0.8,3.1,0.6,4.6,0.8c2.6,0.3,2.3,1.9,2.4,4.1
			c0,0.3,0,0.7-0.1,1c0,0.1-0.1,0.2-0.2,0.3c-0.7,0.8-2.6,1.2-3.4,1.4c-1.7,0.4-3.3,1-4.9,1.6c-0.7,0.4-1.3,0.9-1.8,1.5
			c-1.9,2.7-2.7,5.9-3.5,9c-0.8,2.9-1.5,5.8-2.4,8.7c-0.7,2.6-1.5,5.2-2.3,7.8c-0.6,2.4-1.6,4.6-2.8,6.7c-1.5,2.4-3.8,4.2-5.8,6.2
			c-4.5,4.6-8.3,10.4-14.4,12.6c-2.3,0.8-4.8,1.1-7.2,1.7c-0.8,0.2-1.8,0.7-2,1.4c0.1,0,0.2,0,0.4-0.1l0.2-0.1
			c0.2-0.1,0.4-0.1,0.5-0.2c0.6-0.1,1.1,0,1.6,0.2c0.7,0.1,1.3,0.1,2,0.1c0.6,0.1,1.1,0.6,1.8,0.8s1-0.3,1.6-0.4s1,0.3,1.6,0.2
			c0.9-0.1,1.7-0.4,2.5-0.9c1.6-1,3.1-2.1,4.5-3.3c1.3-1.2,2.5-2.4,3.9-3.5c2.9-2.5,8.7-6.6,11.3-9.4l0.7-0.7l0,0
			c2.1-2.2,3.4-3.4,4.3-6.4c0.4-1.5,1.6-5.2,2.9-9.4l0.3-1c0.5,0.6,0.7,1.3,0.7,2c0.4,4.9,1.5,9.8,2.3,14.6
			c0.6,3.5,1.1,6.9,1.4,10.4c0.2,2.5,0.2,5,0.3,7.6l0.2,18c0,1,0,2,0,3.1c0,2.8,0.2,5.7,0.6,8.5c0.3,2.5,0.9,4.9,1.6,7.3
			c0.2,0.6,0.4,1.2,0.6,1.7c2.1,5.8,5.3,11,8.5,16.2c3.2,5.5,6,11.3,8.5,17.1c0.5,1,0.9,2.1,1.1,3.2c0.3,1.9-0.2,3.9-0.4,5.9
			s0.1,3.8,0,5.8c0,1.9-0.5,3.8-1.6,5.4c-0.8,1-1.9,1.7-3.1,2.1c1,0.2,1.9,0.2,2.9,0.1c0.6-0.1,1.1-0.2,1.6-0.5
			c2.5-1,4.9-2.2,7.2-3.5c0.9-0.8,1.5-1.8,1.2-4c-0.3-2.1,0.1-4.2,1.2-6c0.6-1.1,1.1-2.3,1.5-3.5c0.2-0.9-0.6-1.7-1-1.9
			c-0.2-1-1.1-1.5-2-2c-1.2-0.6-2.3-1.4-3.3-2.4c-0.5-1-1-2.1-1.2-3.2c-0.1-0.2-0.3-0.4-0.6-0.6c-1.5-4.4-4.9-13.6-5.9-16.8
			c-1.9-5.9-2.7-8.1-5.9-11.4c0,0,1.8-17.3,2.8-29.9l1.2-2.2c0.1-0.2,0.3-0.5,0.4-0.7c1.4-2.3,3-4.4,4.8-6.3
			c0.2-0.2,0.4-0.4,0.5-0.6c-0.3,0.5-0.5,0.9-0.8,1.3C366.9,319.2,365.4,321.2,365.5,323.4z M371.6,302.8l0.1-0.1
			c-0.1-0.7-0.2-1.3-0.4-1.9c-0.2-0.9-0.5-1.9-0.9-3c-0.1-0.3-0.2-0.7-0.4-1c-0.4-1.2-0.9-2.5-1.2-3.8c-0.1-0.4-0.2-0.8-0.4-1.2
			s-0.3-0.8-0.4-1.2s-0.2-0.6-0.2-0.9c0-0.1,0-0.2-0.1-0.3s-0.1-0.4-0.1-0.5c-0.1-0.3-0.1-0.6-0.2-0.9l-0.1-0.3c0-0.1,0-0.2,0-0.2
			c0-0.1,0-0.3-0.1-0.4v-0.3c0-0.2,0-0.4,0-0.5c0-0.2,0-0.3,0-0.5c0.3-1.6,0.6-3.1,1.1-4.6c0.3-1.2,0.7-2.4,1-3.7
			c1,1.8,1.9,3.5,2.8,5.3c0.8,1.4,1.5,2.9,2,4.4c1.1,3.5,0.8,7.2,0.4,10.8c-0.4,4.1-1.4,8.2-2.7,12.1
			C372.3,307.6,372.2,305.1,371.6,302.8z"/>
	</g>
</g>
</svg>
